<svg width="56" height="50" viewBox="0 0 56 50" fill="none" xmlns="http://www.w3.org/2000/svg">
<path d="M22.0949 35.9421C21.8754 35.9422 21.6631 35.8639 21.4963 35.7213L15.5137 30.6271C15.4117 30.5403 15.3299 30.4324 15.2737 30.3109C15.2176 30.1894 15.1885 30.0571 15.1885 29.9232C15.1885 29.7893 15.2176 29.657 15.2737 29.5354C15.3299 29.4139 15.4117 29.306 15.5137 29.2192L21.4963 24.1251C21.6829 23.9661 21.9251 23.8877 22.1694 23.9072C22.4138 23.9268 22.6405 24.0425 22.7995 24.2291C23.1302 24.6182 23.0837 25.2016 22.6948 25.5323L17.5392 29.9229L22.6948 34.3134C22.8389 34.436 22.942 34.5999 22.99 34.783C23.038 34.9661 23.0287 35.1596 22.9633 35.3372C22.8978 35.5148 22.7795 35.6681 22.6241 35.7762C22.4688 35.8844 22.2842 35.9423 22.0949 35.9421ZM33.9051 35.9421C33.6435 35.9421 33.3836 35.8317 33.201 35.6166C33.042 35.4299 32.9637 35.1878 32.9832 34.9434C33.0028 34.699 33.1186 34.4724 33.3052 34.3134L38.4607 29.9229L33.3052 25.5323C33.1252 25.3715 33.0153 25.1466 32.9989 24.9058C32.9824 24.665 33.0609 24.4273 33.2173 24.2436C33.3738 24.0598 33.596 23.9445 33.8363 23.9223C34.0767 23.9002 34.3162 23.9729 34.5036 24.1249L40.4862 29.2191C40.5882 29.3059 40.6701 29.4138 40.7262 29.5353C40.7824 29.6569 40.8114 29.7892 40.8114 29.923C40.8114 30.0569 40.7824 30.1892 40.7262 30.3108C40.6701 30.4323 40.5882 30.5402 40.4862 30.627L34.5036 35.7212C34.3368 35.8638 34.1246 35.9421 33.9052 35.9421H33.9051ZM25.8821 39.7631C25.7444 39.7632 25.6084 39.7326 25.484 39.6735C25.3597 39.6144 25.2501 39.5282 25.1632 39.4214C25.0764 39.3145 25.0145 39.1895 24.9822 39.0557C24.9498 38.9218 24.9477 38.7824 24.9761 38.6477L28.7046 20.9448C28.7552 20.7049 28.899 20.4948 29.1044 20.3609C29.3098 20.227 29.56 20.1802 29.8 20.2308C30.0399 20.2813 30.2499 20.4251 30.3838 20.6305C30.5178 20.836 30.5646 21.0862 30.514 21.3261L26.7855 39.0289C26.7419 39.2362 26.6283 39.4223 26.4639 39.556C26.2994 39.6896 26.094 39.7627 25.8821 39.7631Z" fill="#D93E3E"/>
<path d="M49.7925 49.4076H6.20755C2.78494 49.4076 0 46.6232 0 43.2V6.20755C0 2.78494 2.78494 0 6.20755 0H49.7925C53.2151 0 56 2.78494 56 6.20755V43.2C56 46.6232 53.2151 49.4076 49.7925 49.4076ZM6.20755 1.84906C3.80443 1.84906 1.84906 3.80443 1.84906 6.20755V43.2C1.84906 45.6032 3.80443 47.5585 6.20755 47.5585H49.7925C52.1956 47.5585 54.1509 45.6032 54.1509 43.2V6.20755C54.1509 3.80443 52.1956 1.84906 49.7925 1.84906H6.20755Z" fill="#D93E3E"/>
<path d="M55.0755 14.8044H0.924535C0.682042 14.8003 0.450866 14.7011 0.280828 14.5281C0.110789 14.3552 0.0155029 14.1224 0.0155029 13.8798C0.0155029 13.6373 0.110789 13.4045 0.280828 13.2316C0.450866 13.0586 0.682042 12.9594 0.924535 12.9553H55.0755C55.318 12.9594 55.5491 13.0586 55.7192 13.2316C55.8892 13.4045 55.9845 13.6373 55.9845 13.8798C55.9845 14.1224 55.8892 14.3552 55.7192 14.5281C55.5491 14.7011 55.318 14.8003 55.0755 14.8044ZM15.7965 10.3804C14.1837 10.3804 12.8706 9.06727 12.8706 7.4545C12.8706 5.84133 14.1837 4.52876 15.7965 4.52876C17.4097 4.52876 18.7222 5.84133 18.7222 7.4545C18.7222 9.06727 17.4097 10.3804 15.7965 10.3804ZM15.7965 6.37782C15.2031 6.37782 14.7197 6.86069 14.7197 7.4545C14.7197 8.04831 15.2031 8.53131 15.7965 8.53131C16.3903 8.53131 16.8732 8.04844 16.8732 7.4545C16.8732 6.86055 16.3903 6.37782 15.7965 6.37782ZM6.80718 10.352C5.19374 10.352 3.88131 9.0394 3.88131 7.42623C3.88131 5.81293 5.19374 4.50037 6.80705 4.50037C8.42035 4.50037 9.73278 5.81293 9.73278 7.42623C9.73278 9.0394 8.42048 10.352 6.80718 10.352ZM6.80718 6.34942C6.21376 6.34942 5.73037 6.83282 5.73037 7.42623C5.73037 8.02005 6.21376 8.50291 6.80705 8.50291C7.40086 8.50291 7.88372 8.02005 7.88372 7.42623C7.88372 6.83282 7.40099 6.34942 6.80718 6.34942ZM24.7858 10.4082C23.1732 10.4082 21.8606 9.09567 21.8606 7.48237C21.8606 5.86972 23.173 4.55716 24.7858 4.55716C26.3991 4.55716 27.7116 5.86959 27.7116 7.48237C27.7116 9.09567 26.3991 10.4082 24.7858 10.4082ZM24.7858 6.40569C24.1925 6.40569 23.7097 6.88855 23.7097 7.48237C23.7097 8.07618 24.1925 8.55918 24.7858 8.55918C25.3796 8.55918 25.8625 8.07618 25.8625 7.48237C25.8625 6.88855 25.3796 6.40569 24.7858 6.40569Z" fill="#D93E3E"/>
</svg>
